<svg width="73" height="73" viewBox="0 0 73 73" fill="none" xmlns="http://www.w3.org/2000/svg">
<g clip-path="url(#clip0)">
<path d="M64.7 46.9C61.1 46.9 58.1 49.3 57.2 52.6H49.7V44.3H57.4C65.7 44.3 72.5 37.5 72.5 29.2C72.5 22.5 68.1 16.7 61.8 14.7C59.8 7.1 53 1.6 45 1.6C41.9 1.6 39 2.4 36.4 3.9C33.6 1.4 30 0 26.2 0C18 0 11.3 6.5 11.1 14.6C4.6 16.4 0 22.3 0 29.2C0 37.5 6.8 44.3 15.1 44.3H22.8V52.6H15.3C14.4 49.3 11.4 46.9 7.8 46.9C3.5 46.9 0 50.4 0 54.7C0 59 3.5 62.5 7.8 62.5C11.4 62.5 14.4 60.1 15.3 56.8H24.9C26.1 56.8 27 55.8 27 54.7V44.3H34.1V57.1C30.8 58 28.4 61 28.4 64.6C28.4 68.9 31.9 72.4 36.2 72.4C40.5 72.4 44 68.9 44 64.6C44 61 41.6 58 38.3 57.1V44.3H45.4V54.7C45.4 55.9 46.4 56.8 47.5 56.8H57.1C58 60.1 61 62.5 64.6 62.5C68.9 62.5 72.4 59 72.4 54.7C72.4 50.4 69 46.9 64.7 46.9ZM7.8 58.2C5.8 58.2 4.3 56.6 4.3 54.7C4.3 52.7 5.9 51.2 7.8 51.2C9.7 51.2 11.3 52.8 11.3 54.7C11.3 56.6 9.7 58.2 7.8 58.2ZM39.8 64.6C39.8 66.6 38.2 68.1 36.3 68.1C34.3 68.1 32.8 66.5 32.8 64.6C32.8 62.6 34.4 61.1 36.3 61.1C38.2 61 39.8 62.6 39.8 64.6ZM15.1 40C9.1 40 4.2 35.1 4.2 29.1C4.2 23.7 8.2 19.1 13.5 18.4C14.6 18.2 15.4 17.2 15.3 16.1C15.3 15.8 15.3 15.4 15.3 15.1C15.3 9.1 20.2 4.2 26.2 4.2C29.4 4.2 32.4 5.6 34.5 8C35.2 8.9 36.5 9 37.4 8.3C39.6 6.7 42.3 5.8 45.1 5.8C51.6 5.8 56.9 10.5 57.9 16.7C58 17.6 58.7 18.3 59.6 18.4C64.6 19.4 68.3 23.9 68.3 29C68.3 35 63.4 39.9 57.4 39.9L15.1 40ZM64.7 58.2C62.7 58.2 61.2 56.6 61.2 54.7C61.2 52.7 62.8 51.2 64.7 51.2C66.7 51.2 68.2 52.8 68.2 54.7C68.2 56.6 66.6 58.2 64.7 58.2Z" fill="#39B54A"/>
</g>
<defs>
<clipPath id="clip0">
<rect width="72.4" height="72.4" fill="white"/>
</clipPath>
</defs>
</svg>
