<svg width="77" height="77" viewBox="0 0 77 77" fill="none" xmlns="http://www.w3.org/2000/svg">
<g clip-path="url(#clip0)">
<path d="M38.5 22.6027C32.2738 22.6027 27.2207 17.5397 27.2207 11.3014C27.2207 5.06301 32.2738 0 38.5 0C44.7262 0 49.7793 5.06301 49.7793 11.3014C49.7793 17.5397 44.7262 22.6027 38.5 22.6027Z" fill="#85E7FF"/>
<path d="M1.5039 64.5685C-1.60918 59.1739 0.240621 52.2424 5.63964 49.1233C11.1439 45.9438 17.9867 47.9479 21.0547 53.2671C24.1678 58.6767 22.318 65.5781 16.9189 68.7123C11.5049 71.8315 4.61699 69.963 1.5039 64.5685Z" fill="#85E7FF"/>
<path d="M60.0811 68.7123C54.682 65.5931 52.8322 58.6767 55.9453 53.2671C59.0133 47.9479 65.8711 45.9589 71.3604 49.1233C76.7443 52.2425 78.5942 59.1589 75.4961 64.5685C72.383 69.963 65.4951 71.8315 60.0811 68.7123Z" fill="#85E7FF"/>
<path d="M9.21894 41.4534L4.72226 41.2123C5.30878 30.5137 11.0086 20.6287 19.9719 14.7369L22.4533 18.5191C14.6631 23.6123 9.73027 32.1863 9.21894 41.4534Z" fill="#85E7FF"/>
<path d="M67.781 41.4534C67.2697 32.1863 62.3219 23.6123 54.5617 18.5041L57.0432 14.7219C66.0064 20.6137 71.7062 30.5137 72.2928 41.1973L67.781 41.4534Z" fill="#85E7FF"/>
<path d="M38.5 76.9999C33.131 76.9999 28.0027 75.7794 23.2504 73.3684L25.2807 69.3301C33.5221 73.504 43.4779 73.504 51.7193 69.3301L53.7496 73.3684C48.9972 75.7794 43.8689 76.9999 38.5 76.9999Z" fill="#85E7FF"/>
</g>
<defs>
<clipPath id="clip0">
<rect width="77" height="77" fill="white"/>
</clipPath>
</defs>
</svg>
