<svg width="72" height="27" viewBox="0 0 72 27" fill="none" xmlns="http://www.w3.org/2000/svg">
<path d="M21.6467 13.256C21.6467 15.224 21.3527 16.994 20.7647 18.566C20.1767 20.138 19.3487 21.476 18.2807 22.58C17.2127 23.684 15.9347 24.53 14.4467 25.118C12.9587 25.706 11.3087 26 9.49667 26H0.208673V0.529999H9.49667C11.3087 0.529999 12.9587 0.823999 14.4467 1.412C15.9347 2 17.2127 2.846 18.2807 3.95C19.3487 5.054 20.1767 6.392 20.7647 7.964C21.3527 9.536 21.6467 11.3 21.6467 13.256ZM19.7387 13.256C19.7387 11.48 19.4927 9.896 19.0007 8.504C18.5087 7.112 17.8127 5.936 16.9127 4.976C16.0247 4.016 14.9507 3.284 13.6907 2.78C12.4307 2.276 11.0327 2.024 9.49667 2.024H2.06267V24.506H9.49667C11.0327 24.506 12.4307 24.254 13.6907 23.75C14.9507 23.246 16.0247 22.514 16.9127 21.554C17.8127 20.594 18.5087 19.418 19.0007 18.026C19.4927 16.634 19.7387 15.044 19.7387 13.256ZM45.6629 26H44.2409C44.0729 26 43.9349 25.958 43.8269 25.874C43.7189 25.778 43.6349 25.658 43.5749 25.514L40.5689 18.116H28.0589L25.0709 25.514C25.0229 25.646 24.9389 25.76 24.8189 25.856C24.6989 25.952 24.5549 26 24.3869 26H22.9829L33.4049 0.529999H35.2409L45.6629 26ZM28.6169 16.748H40.0289L34.8269 3.878C34.7429 3.674 34.6589 3.446 34.5749 3.194C34.4909 2.93 34.4069 2.654 34.3229 2.366C34.2389 2.654 34.1549 2.93 34.0709 3.194C33.9869 3.446 33.9029 3.68 33.8189 3.896L28.6169 16.748ZM71.3447 13.256C71.3447 15.224 71.0507 17.012 70.4627 18.62C69.8747 20.216 69.0467 21.584 67.9787 22.724C66.9107 23.852 65.6327 24.728 64.1447 25.352C62.6567 25.964 61.0067 26.27 59.1947 26.27C57.4067 26.27 55.7687 25.964 54.2807 25.352C52.7927 24.728 51.5147 23.852 50.4467 22.724C49.3787 21.584 48.5447 20.216 47.9447 18.62C47.3567 17.012 47.0627 15.224 47.0627 13.256C47.0627 11.3 47.3567 9.524 47.9447 7.928C48.5447 6.32 49.3787 4.952 50.4467 3.824C51.5147 2.684 52.7927 1.802 54.2807 1.178C55.7687 0.553998 57.4067 0.241998 59.1947 0.241998C61.0067 0.241998 62.6567 0.553998 64.1447 1.178C65.6327 1.79 66.9107 2.666 67.9787 3.806C69.0467 4.946 69.8747 6.32 70.4627 7.928C71.0507 9.524 71.3447 11.3 71.3447 13.256ZM69.4367 13.256C69.4367 11.48 69.1907 9.884 68.6987 8.468C68.2067 7.052 67.5107 5.852 66.6107 4.868C65.7227 3.884 64.6487 3.134 63.3887 2.618C62.1287 2.09 60.7307 1.826 59.1947 1.826C57.6827 1.826 56.2967 2.09 55.0367 2.618C53.7887 3.134 52.7087 3.884 51.7967 4.868C50.8967 5.852 50.1947 7.052 49.6907 8.468C49.1987 9.884 48.9527 11.48 48.9527 13.256C48.9527 15.044 49.1987 16.646 49.6907 18.062C50.1947 19.466 50.8967 20.66 51.7967 21.644C52.7087 22.628 53.7887 23.378 55.0367 23.894C56.2967 24.41 57.6827 24.668 59.1947 24.668C60.7307 24.668 62.1287 24.41 63.3887 23.894C64.6487 23.378 65.7227 22.628 66.6107 21.644C67.5107 20.66 68.2067 19.466 68.6987 18.062C69.1907 16.646 69.4367 15.044 69.4367 13.256Z" fill="#39B54A"/>
</svg>
