<svg width="75" height="81" viewBox="0 0 75 81" fill="none" xmlns="http://www.w3.org/2000/svg">
<path d="M9.0825 71.5365H57.2066L54.9083 64.0946C55.2491 64.3916 74.625 81 74.625 81V8.35312C74.3955 3.83737 70.5075 0 65.688 0L9.09937 0.010125C4.28325 0.010125 0.375 3.85425 0.375 8.37V63.18C0.375 67.9421 4.2765 71.5365 9.0825 71.5365ZM44.682 19.1801L44.5706 19.2206L44.6111 19.1801H44.682ZM18.9274 23.463C25.1138 18.9608 30.8479 19.1768 30.8479 19.1768L31.3103 19.6324C23.7401 21.438 20.3078 24.8197 20.3078 24.8197C20.6588 24.7455 35.9441 15.9266 54.4661 25.0425C54.4661 25.0425 51.027 21.8801 43.9226 19.8551L44.5504 19.2375C45.5325 19.2409 50.73 19.4231 56.292 23.49C56.292 23.49 62.5155 34.1213 62.5155 47.1825C62.3096 46.9327 58.6545 52.8053 49.2484 53.0078C49.2484 53.0078 47.6554 51.2055 46.5214 49.6328C52.0226 48.0532 54.0814 44.8942 54.0814 44.8942C43.3725 51.6375 33.9866 50.5845 22.758 46.0282C22.6534 46.0282 22.6061 45.981 22.5521 45.927V45.9067C22.4981 45.8561 22.4509 45.8055 22.3463 45.8055H22.1437C21.4552 45.3532 20.9963 45.1305 20.9963 45.1305C20.9963 45.1305 23.0516 48.2895 28.3335 49.869C26.9464 51.4519 25.5727 53.2507 25.5727 53.2507C16.17 53.028 12.741 47.1555 12.741 47.1555C12.741 34.074 18.9274 23.463 18.9274 23.463Z" fill="white"/>
<path d="M45.2895 43.1021C47.6891 43.1021 49.6433 41.0771 49.6433 38.5796C49.6433 36.099 47.6993 34.074 45.2895 34.074V34.0841C42.9 34.0841 40.9425 36.1023 40.9358 38.5998C40.9358 41.0771 42.8899 43.1021 45.2895 43.1021Z" fill="white"/>
<path d="M29.7038 43.1021C32.1034 43.1021 34.0575 41.0771 34.0575 38.5796C34.0575 36.099 32.1169 34.074 29.7173 34.074L29.7038 34.0841C27.3041 34.0841 25.35 36.1023 25.35 38.5998C25.35 41.0771 27.3041 43.1021 29.7038 43.1021Z" fill="white"/>
</svg>
