<svg width="85" height="115" viewBox="0 0 85 115" fill="none" xmlns="http://www.w3.org/2000/svg">
<g clip-path="url(#clip0)">
<path d="M64.9353 0H7.06297C3.17711 0 0 3.17679 0 7.06226V107.962C0 111.848 3.17711 115.024 7.06297 115.024H77.9615C81.8473 115.024 85.0244 111.872 85.0244 107.962V21.7977L64.9353 0ZM66.5972 10.5567L75.3953 20.1116H66.5972V10.5567ZM79.0857 107.938C79.0857 108.549 78.5725 109.062 77.9615 109.062H7.06297C6.42754 109.062 5.93876 108.549 5.93876 107.938V7.06226C5.93876 6.45134 6.45198 5.93816 7.06297 5.93816H60.6829V23.0929C60.6829 24.7301 62.0026 26.0497 63.64 26.0497H79.0857V107.938ZM16.3744 31.4991H66.6705C67.8925 31.4991 68.8945 32.5011 68.8945 33.7229C68.8945 34.9447 67.8925 35.9467 66.6705 35.9467H16.3744C15.1524 35.9467 14.1504 34.9447 14.1504 33.7229C14.1504 32.5011 15.1524 31.4991 16.3744 31.4991ZM68.87 48.6294C68.87 49.8512 67.868 50.8532 66.6461 50.8532H16.3744C15.1524 50.8532 14.1504 49.8512 14.1504 48.6294C14.1504 47.4076 15.1524 46.4056 16.3744 46.4056H66.6705C67.8925 46.4056 68.87 47.4076 68.87 48.6294ZM68.87 63.0472C68.87 64.269 67.868 65.2709 66.6461 65.2709H16.3744C15.1524 65.2709 14.1504 64.269 14.1504 63.0472C14.1504 61.8253 15.1524 60.8234 16.3744 60.8234H66.6705C67.8925 60.8234 68.87 61.8253 68.87 63.0472ZM68.87 77.7093C68.87 78.9311 67.868 79.933 66.6461 79.933H16.3744C15.1524 79.933 14.1504 78.9311 14.1504 77.7093C14.1504 76.4874 15.1524 75.4855 16.3744 75.4855H66.6705C67.8925 75.4855 68.87 76.4874 68.87 77.7093Z" fill="#85E7FF"/>
</g>
<defs>
<clipPath id="clip0">
<rect width="85" height="115" fill="white"/>
</clipPath>
</defs>
</svg>
