<svg width="54" height="54" viewBox="0 0 54 54" fill="none" xmlns="http://www.w3.org/2000/svg">
<path d="M44.61 0H9.39C4.20405 0 0 4.20405 0 9.39V44.61C0 49.796 4.20405 54 9.39 54H44.61C49.796 54 54 49.796 54 44.61V9.39C54 4.20405 49.796 0 44.61 0Z" fill="#39B54A"/>
<path d="M37.51 40.56C39.0895 40.56 40.37 39.2795 40.37 37.7C40.37 36.1204 39.0895 34.84 37.51 34.84C35.9305 34.84 34.65 36.1204 34.65 37.7C34.65 39.2795 35.9305 40.56 37.51 40.56Z" fill="white"/>
<path d="M39.96 17.72C41.5395 17.72 42.82 16.4395 42.82 14.86C42.82 13.2805 41.5395 12 39.96 12C38.3805 12 37.1 13.2805 37.1 14.86C37.1 16.4395 38.3805 17.72 39.96 17.72Z" fill="white"/>
<path d="M13.86 43C15.4395 43 16.72 41.7196 16.72 40.14C16.72 38.5605 15.4395 37.28 13.86 37.28C12.2805 37.28 11 38.5605 11 40.14C11 41.7196 12.2805 43 13.86 43Z" fill="white"/>
<path d="M39.96 14.86L38.33 37.7" stroke="white" stroke-width="0.82" stroke-miterlimit="10"/>
<path d="M14.67 40.1399L38.33 37.7" stroke="white" stroke-width="0.82" stroke-miterlimit="10"/>
<path d="M22.78 27C26.9111 27 30.26 23.6511 30.26 19.52C30.26 15.3889 26.9111 12.04 22.78 12.04C18.6489 12.04 15.3 15.3889 15.3 19.52C15.3 23.6511 18.6489 27 22.78 27Z" fill="white"/>
<path d="M13.86 40.14L22.83 19.75" stroke="white" stroke-width="0.82" stroke-miterlimit="10"/>
<path d="M37.51 37.7L22.01 19.75" stroke="white" stroke-width="0.82" stroke-miterlimit="10"/>
<path d="M39.96 14.86L22.01 19.75" stroke="white" stroke-width="0.82" stroke-miterlimit="10"/>
</svg>
