<svg width="63" height="63" viewBox="0 0 63 63" fill="none" xmlns="http://www.w3.org/2000/svg">
<g clip-path="url(#clip0)">
<path d="M52.7999 10.4L49.7 12.5L44.5 11.5L41.4 10.5L37.2999 11.5L34.2 10.5L36.2999 6.40002H40.4L44.5 4.40002C47.6 5.70002 50.4 7.80002 52.7999 10.4Z" fill="#39B54A"/>
<path d="M28.9999 6.20001L27.9999 9.30001L24.8999 10.3L21.7999 15.5L16.5999 18.6L9.2999 19.6V22.7L11.3999 24.8V29L8.2999 26.9L5.1999 24.8L3.3999 19.4C6.4999 12 12.3999 6.20001 19.8999 3.20001L22.7999 5.20001L28.9999 6.20001Z" fill="#39B54A"/>
<path d="M31.0999 35.2L29.9999 40.4L25.8999 44.5V47.7L21.7999 50.8V55.9L18.6999 54.9L16.5999 49.7V39.4L11.3999 38.3L9.29993 34.2V31.1L11.3999 29L14.4999 25.9L16.5999 30H23.7999L26.8999 35.2H31.0999Z" fill="#39B54A"/>
<path d="M57.2999 16.4C62.9999 26.5 62.2999 38.9 55.5999 48.4L52.7999 45.6V41.5L50.6999 37.4L48.5999 33.3V29L45.4999 26.9L41.3999 27.9L34.0999 24.8L33.0999 17.5L36.1999 14.4H42.3999L44.4999 17.5L50.6999 18.5L56.8999 16.4H57.2999Z" fill="#39B54A"/>
<path d="M31.1 62.2C48.2999 62.2 62.2 48.3 62.2 31.1C62.2 13.9 48.2999 0 31.1 0C18.7 0 7.39995 7.4 2.49995 18.8L2.09995 19L2.29995 19.5C-4.10005 35.4 3.49995 53.5 19.4 60C23.1 61.4 27.1 62.2 31.1 62.2ZM55.5 46.7L53.9 45.1V41.4C53.9 41.2 53.8999 41.1 53.7999 40.9L49.7999 32.8V29C49.7999 28.7 49.5999 28.3 49.2999 28.1L46.2 26C46 25.8 45.7 25.8 45.4 25.9L41.5999 26.9L35.2 24.2L34.2999 18L36.7 15.6H41.9L43.7 18.2C43.9 18.4 44.1 18.6 44.4 18.6L50.5999 19.6C50.7999 19.6 50.8999 19.6 51.0999 19.6L56.7999 17.7C61.5999 26.9 61.0999 38 55.5 46.7ZM51.2 10.2L49.5 11.3L44.7999 10.4L41.7999 9.4C41.5999 9.3 41.4 9.3 41.2 9.4L37.2999 10.4L35.5999 9.8L36.9 7.3H40.4C40.6 7.3 40.7 7.3 40.9 7.2L44.5 5.4C46.9 6.6 49.2 8.3 51.2 10.2ZM19.7 4.4L22.2 6C22.3 6.1 22.5 6.1 22.6 6.2L27.6 7L27.1 8.5L24.5 9.4C24.2999 9.5 24.1 9.6 23.9 9.8L20.9 14.8L16.1 17.7L9.09995 18.7C8.59995 18.8 8.19995 19.2 8.19995 19.7V22.8C8.19995 23.1 8.29995 23.3 8.49995 23.5L10.2999 25.3V27.1L5.99995 24.2L4.39995 19.5C7.49995 12.7 12.9 7.3 19.7 4.4ZM16.7999 38.3L12.0999 37.4L10.3999 33.9V31.5L14.2999 27.6L15.6999 30.5C15.8999 30.9 16.2 31.1 16.6 31.1H23.2999L26.1 35.8C26.3 36.1 26.6 36.3 27 36.3H29.9L29.2 39.9L25.2999 43.8C25.0999 44 25 44.3 25 44.5V47.1L21.2999 49.9C21 50.1 20.9 50.4 20.9 50.7V54.4L19.6 54L17.7999 49.5V39.4C17.5999 38.9 17.2999 38.4 16.7999 38.3ZM3.29995 22.6L4.19995 25.2C4.29995 25.4 4.39995 25.6 4.59995 25.7L9.79995 29.1L8.59995 30.3C8.39995 30.5 8.29995 30.8 8.29995 31V34.1C8.29995 34.3 8.29995 34.4 8.39995 34.6L10.4999 38.7C10.5999 39 10.8999 39.2 11.1999 39.3L15.5999 40.2V49.7C15.5999 49.8 15.5999 50 15.6999 50.1L17.7999 55.3C17.9 55.6 18.1 55.8 18.4 55.9L21.5 56.9C21.6 56.9 21.6999 57 21.7999 57C22.4 57 22.7999 56.5 22.7999 56V51.3L26.5 48.5C26.7999 48.3 26.9 48 26.9 47.7V45L30.7 41.2C30.8 41.1 30.9 40.9 31 40.7L32 35.5C32.0999 34.9 31.7 34.4 31.2 34.3C31.1 34.3 31.1 34.3 31 34.3H27.4L24.6 29.6C24.4 29.3 24.1 29.1 23.7 29.1H17.1L15.2999 25.5C15.1999 25.2 14.8999 25 14.4999 24.9C14.1999 24.8 13.7999 25 13.5999 25.2L12.2999 26.5V24.9C12.2999 24.6 12.1999 24.4 11.9999 24.2L10.1999 22.4V20.6L16.6 19.7C16.7 19.7 16.9 19.6 17 19.6L22.2 16.5C22.3 16.4 22.5 16.3 22.6 16.1L25.5 11.2L28.2 10.3C28.5 10.2 28.7999 10 28.9 9.6L29.9 6.5C30.1 6 29.8 5.4 29.2 5.2C29.2 5.2 29.1 5.2 29 5.2L23 4.2L21.9 3.5C28.4 1.4 35.5 1.6 41.7999 4.2L39.9 5.1H36C35.5999 5.1 35.1999 5.3 35.0999 5.7L33 9.8C32.7 10.3 33 10.9 33.5 11.2C33.5 11.2 33.5999 11.2 33.5999 11.3L36.7 12.3C36.9 12.4 37.0999 12.4 37.2999 12.3L41.2 11.3L44 12.2H44.0999L49.2999 13.2C49.5999 13.3 49.8999 13.2 50.0999 13L52.5 11.4C53.7 12.7 54.6999 14.1 55.5999 15.6L50.5 17.3L45 16.4L43.2 13.7C43 13.4 42.7 13.2 42.2999 13.2H36.0999C35.7999 13.2 35.6 13.3 35.4 13.5L32.2999 16.6C32.0999 16.8 32 17.2 32 17.5L33 24.8C33.0999 25.2 33.2999 25.5 33.5999 25.6L40.9 28.7C41.1 28.8 41.2999 28.8 41.5999 28.8L45.2999 27.9L47.5999 29.4V33C47.5999 33.2 47.6 33.3 47.7 33.5L51.7 41.6V45.5C51.7 45.8 51.7999 46 52 46.2L54.2 48.4C44.6 61.2 26.4 63.8 13.5999 54.2C3.89995 46.9 -0.20005 34.3 3.29995 22.6Z" fill="#39B54A"/>
</g>
<defs>
<clipPath id="clip0">
<rect width="62.2" height="62.2" fill="white"/>
</clipPath>
</defs>
</svg>
