<svg width="54" height="54" viewBox="0 0 54 54" fill="none" xmlns="http://www.w3.org/2000/svg">
<path d="M44.61 0H9.39C4.20405 0 0 4.20405 0 9.39V44.61C0 49.796 4.20405 54 9.39 54H44.61C49.796 54 54 49.796 54 44.61V9.39C54 4.20405 49.796 0 44.61 0Z" fill="#39B54A"/>
<path d="M27.15 9.21997C18.39 9.21997 11.29 17.08 11.29 26.78C11.29 35.38 16.88 42.53 24.29 44.04H24.42C24.5977 44.04 24.7681 43.9694 24.8938 43.8437C25.0194 43.7181 25.09 43.5477 25.09 43.37L26 27.56C26.0273 27.2619 26.165 26.9848 26.3861 26.783C26.6072 26.5813 26.8957 26.4694 27.195 26.4694C27.4943 26.4694 27.7828 26.5813 28.0039 26.783C28.225 26.9848 28.3627 27.2619 28.39 27.56L29.28 43.35V43.46C29.2994 43.6217 29.3772 43.7709 29.4987 43.8795C29.6202 43.9881 29.7771 44.0487 29.94 44.05H30C37.38 42.54 43 35.39 43 26.79C43 17.08 35.9 9.21997 27.15 9.21997ZM22.65 30.45C16.87 34.25 15.57 26.51 15.3 23.87V23.65C15.3128 23.5158 15.3689 23.3894 15.46 23.29C15.5603 23.2019 15.6868 23.1492 15.82 23.14H16.04C18.71 23.37 26.45 24.67 22.65 30.45ZM27.15 23.45C20.37 22.05 24.92 15.66 26.6 13.61L26.73 13.44C26.8317 13.3478 26.9628 13.2946 27.1 13.29H27.18C27.3207 13.2922 27.4557 13.3455 27.56 13.44C27.6074 13.4934 27.6509 13.5502 27.69 13.61C29.37 15.69 33.92 22.08 27.15 23.48V23.45ZM31.64 30.57C27.84 24.79 35.58 23.49 38.22 23.22H38.44C38.5732 23.2292 38.6996 23.2819 38.8 23.37C38.8966 23.4697 38.9535 23.6013 38.96 23.74C38.96 23.8 38.96 23.88 38.96 23.95C38.73 26.66 37.43 34.41 31.64 30.6V30.57Z" fill="white"/>
</svg>
