<svg width="68" height="68" viewBox="0 0 68 68" fill="none" xmlns="http://www.w3.org/2000/svg">
<path d="M67.827 19.9875C67.6673 16.3679 67.0816 13.8928 66.2431 11.737C65.378 9.44814 64.047 7.41213 62.3167 5.70881C60.613 3.97887 58.55 2.63483 56.3006 1.79648C54.1311 0.958121 51.6688 0.372603 48.0485 0.212916C44.4016 0.0399217 43.2437 0 34.0067 0C24.7696 0 23.6117 0.0399217 19.9914 0.199609C16.3711 0.359296 13.8955 0.944814 11.7393 1.78317C9.44999 2.64814 7.41358 3.97887 5.70992 5.70881C3.97964 7.41213 2.63535 9.47476 1.79683 11.7237C0.958309 13.8928 0.372676 16.3546 0.212958 19.9742C0.0399295 23.6204 0 24.7781 0 34C0 43.2219 0.0399295 44.393 0.199648 48.0125C0.359366 51.6321 0.944999 54.1072 1.78352 56.263C2.64866 58.5519 3.99295 60.5879 5.70992 62.2912C7.41358 64.0211 9.47661 65.3652 11.726 66.2035C13.8955 67.0419 16.3578 67.6274 19.9781 67.7871C23.5984 67.9468 24.7563 67.9867 33.9933 67.9867C43.2304 67.9867 44.3883 67.9468 48.0086 67.7871C51.6289 67.6274 54.1045 67.0419 56.2607 66.2035C60.826 64.4337 64.4463 60.8274 66.2165 56.2497C67.055 54.0806 67.6406 51.6188 67.8004 47.9992C67.9601 44.3663 68 43.2219 68 33.9867C68 24.7515 67.9867 23.6204 67.827 19.9875ZM61.7044 47.7597C61.558 51.0865 60.999 52.8697 60.5332 54.0673C59.3885 57.0348 57.0327 59.3769 54.0779 60.5213C52.88 60.9871 51.0699 61.546 47.769 61.6924C44.1754 61.8521 43.1106 61.892 34.0333 61.892C24.956 61.892 23.8646 61.8521 20.2975 61.6924C16.9701 61.546 15.1865 60.9871 13.9886 60.5213C12.5113 59.9757 11.167 59.1108 10.0889 57.9796C8.95753 56.8751 8.09239 55.5444 7.54668 54.0806C7.08084 52.883 6.52182 51.0732 6.37542 47.773C6.2157 44.18 6.17577 43.1155 6.17577 34.0399C6.17577 24.9644 6.2157 23.8732 6.37542 20.3069C6.52182 16.98 7.08084 15.1969 7.54668 13.9992C8.07908 12.5088 8.94422 11.1781 10.0889 10.0869C11.1936 8.95577 12.5246 8.0908 13.9886 7.54521C15.1865 7.07945 16.9967 6.52055 20.2975 6.37417C23.8912 6.21448 24.956 6.17456 34.0333 6.17456C43.1239 6.17456 44.202 6.21448 47.769 6.37417C51.0965 6.52055 52.88 7.07945 54.0779 7.54521C55.5553 8.0908 56.8996 8.95577 57.9777 10.0869C59.109 11.1914 59.9742 12.5221 60.5199 13.9992C60.9857 15.1969 61.5447 17.0067 61.6911 20.3069C61.8509 23.8998 61.8908 24.9644 61.8908 34.0399C61.8908 43.1155 61.8642 44.1667 61.7044 47.7597Z" fill="white"/>
<path d="M34.0066 16.5408C24.357 16.5408 16.5308 24.3654 16.5308 34.0132C16.5308 43.6609 24.357 51.4856 34.0066 51.4856C43.6563 51.4856 51.4825 43.6609 51.4825 34.0132C51.4825 24.3654 43.6563 16.5408 34.0066 16.5408ZM34.0066 45.3376C27.751 45.3376 22.6667 40.2676 22.6667 33.9999C22.6667 27.7322 27.7377 22.6621 34.0066 22.6621C40.2623 22.6621 45.3466 27.7322 45.3466 33.9999C45.3466 40.2676 40.2756 45.3376 34.0066 45.3376Z" fill="white"/>
<path d="M56.2607 15.8489C56.2607 18.0979 54.4373 19.921 52.1879 19.921C49.9385 19.921 48.1151 18.0979 48.1151 15.8489C48.1151 13.6 49.9385 11.7769 52.1879 11.7769C54.424 11.7636 56.2607 13.6 56.2607 15.8489Z" fill="white"/>
</svg>
