<svg width="54" height="54" viewBox="0 0 54 54" fill="none" xmlns="http://www.w3.org/2000/svg">
<path d="M44.61 0H9.39C4.20405 0 0 4.20405 0 9.39V44.61C0 49.796 4.20405 54 9.39 54H44.61C49.796 54 54 49.796 54 44.61V9.39C54 4.20405 49.796 0 44.61 0Z" fill="#39B54A"/>
<path d="M39.13 24.35V40.35C39.1407 41.0389 38.8787 41.704 38.401 42.2004C37.9233 42.6969 37.2687 42.9843 36.58 43H16.8C16.1095 42.9817 15.4544 42.6904 14.9783 42.1899C14.5022 41.6894 14.2439 41.0206 14.26 40.33V24.33C14.252 23.9886 14.3114 23.6489 14.4348 23.3304C14.5581 23.0119 14.743 22.7208 14.9789 22.4738C15.2148 22.2268 15.497 22.0286 15.8095 21.8907C16.1219 21.7528 16.4585 21.6778 16.8 21.67H36.58C36.9236 21.6778 37.2624 21.7534 37.5767 21.8924C37.8911 22.0315 38.1748 22.2312 38.4118 22.4803C38.6487 22.7293 38.8341 23.0226 38.9574 23.3435C39.0806 23.6644 39.1393 24.0064 39.13 24.35Z" fill="white" stroke="white" stroke-width="0.72" stroke-miterlimit="10"/>
<path d="M34.27 17.6V32.1H19.07V17.6C19.07 15.5844 19.8707 13.6513 21.296 12.226C22.7213 10.8007 24.6544 10 26.67 10C28.6857 10 30.6187 10.8007 32.044 12.226C33.4693 13.6513 34.27 15.5844 34.27 17.6V17.6Z" stroke="white" stroke-width="2.76" stroke-miterlimit="10"/>
<path d="M25.0552 38.4159C24.3518 38.2997 23.679 38.0978 23.0367 37.8103C22.4006 37.5167 21.8623 37.165 21.4219 36.7552L22.3027 35.4799C22.3761 35.3759 22.474 35.2903 22.5963 35.223C22.7248 35.1496 22.8594 35.1129 23 35.1129C23.1468 35.1129 23.2967 35.1526 23.4496 35.2321C23.6025 35.3055 23.7677 35.3973 23.9451 35.5074C24.1286 35.6175 24.3274 35.7307 24.5414 35.8469C24.7555 35.957 25.0002 36.0487 25.2754 36.1221L25.6149 32.654C25.1745 32.5316 24.7372 32.3879 24.3029 32.2227C23.8686 32.0576 23.4771 31.8343 23.1285 31.553C22.7798 31.2716 22.4954 30.9138 22.2752 30.4795C22.0611 30.0452 21.9541 29.5008 21.9541 28.8463C21.9541 28.3631 22.052 27.8921 22.2477 27.4334C22.4434 26.9746 22.7278 26.5618 23.101 26.1948C23.4802 25.8278 23.9451 25.5281 24.4956 25.2956C25.0461 25.0571 25.6761 24.9194 26.3856 24.8827L26.4865 23.8643C26.5049 23.6931 26.5813 23.5401 26.7159 23.4056C26.8505 23.2649 27.0248 23.1945 27.2389 23.1945H28.2848L28.1013 25.002C28.7619 25.1244 29.3308 25.3231 29.8079 25.5984C30.285 25.8675 30.6887 26.1581 31.019 26.47L30.3217 27.4884C30.2177 27.6414 30.1107 27.7545 30.0006 27.8279C29.8966 27.8952 29.7712 27.9288 29.6244 27.9288C29.5265 27.9288 29.4164 27.9074 29.2941 27.8646C29.1718 27.8218 29.0372 27.7698 28.8904 27.7086C28.7436 27.6414 28.5846 27.571 28.4133 27.4976C28.2481 27.4242 28.0708 27.36 27.8811 27.3049L27.56 30.5621C27.8536 30.6477 28.1472 30.7425 28.4408 30.8465C28.7344 30.9444 29.0158 31.0606 29.2849 31.1951C29.5602 31.3236 29.814 31.4735 30.0464 31.6447C30.285 31.816 30.4899 32.0178 30.6612 32.2503C30.8385 32.4827 30.9762 32.7518 31.074 33.0577C31.1719 33.3574 31.2208 33.6999 31.2208 34.0853C31.2208 34.6664 31.123 35.2138 30.9272 35.7276C30.7315 36.2353 30.444 36.6849 30.0648 37.0763C29.6856 37.4678 29.2207 37.7889 28.6702 38.0397C28.1197 38.2844 27.4897 38.4342 26.7801 38.4893L26.67 39.6361C26.6517 39.8074 26.5752 39.9603 26.4407 40.0949C26.3061 40.2356 26.1318 40.3059 25.9177 40.3059H24.8717L25.0552 38.4159ZM28.5234 34.5073C28.5234 34.1587 28.4102 33.8804 28.1839 33.6724C27.9637 33.4644 27.6701 33.2901 27.3031 33.1494L27.0095 36.1772C28.0188 35.9998 28.5234 35.4432 28.5234 34.5073ZM24.6332 28.5711C24.6332 28.932 24.7463 29.2256 24.9727 29.4519C25.2051 29.6721 25.5079 29.8587 25.881 30.0116L26.1562 27.2407C25.8749 27.2835 25.6363 27.3478 25.4406 27.4334C25.251 27.5129 25.095 27.6108 24.9727 27.727C24.8564 27.8432 24.7708 27.9747 24.7158 28.1215C24.6607 28.2622 24.6332 28.4121 24.6332 28.5711Z" fill="#39B54A"/>
</svg>
