<svg width="70" height="55" viewBox="0 0 70 55" fill="none" xmlns="http://www.w3.org/2000/svg">
<path d="M64.4082 6.45941L70 1.16704V0H50.6543L36.8594 34.0748L21.1777 0H0.888672V1.16704L7.41016 8.95633C8.05273 9.52628 8.38086 10.3812 8.29883 11.2226V41.8641C8.50391 42.9632 8.13477 44.1031 7.35547 44.9038L0 53.738V54.8779H20.8359V53.7108L13.4805 44.8902C12.6875 44.0896 12.3047 42.9768 12.4688 41.8505V15.3615L30.7617 54.905H32.8945L48.6309 15.3615V46.8579C48.6309 47.6857 48.6309 47.8621 48.084 48.4049L42.4238 53.833V55H69.877V53.833L64.4219 48.527C63.9434 48.1742 63.6973 47.5635 63.793 46.98V8.00642C63.6973 7.4229 63.9297 6.82581 64.4082 6.45941Z" fill="white"/>
</svg>
