<svg width="75" height="28" viewBox="0 0 75 28" fill="none" xmlns="http://www.w3.org/2000/svg">
<path d="M27.5274 13.878C27.5274 15.774 27.1974 17.538 26.5374 19.17C25.8894 20.802 24.9714 22.224 23.7834 23.436C22.5954 24.636 21.1614 25.578 19.4814 26.262C17.8134 26.946 15.9594 27.288 13.9194 27.288C11.8794 27.288 10.0194 26.946 8.33936 26.262C6.65936 25.578 5.21936 24.636 4.01936 23.436C2.83136 22.224 1.90736 20.802 1.24736 19.17C0.59936 17.538 0.27536 15.774 0.27536 13.878C0.27536 11.982 0.59936 10.218 1.24736 8.586C1.90736 6.954 2.83136 5.538 4.01936 4.338C5.21936 3.138 6.65936 2.196 8.33936 1.512C10.0194 0.827999 11.8794 0.485999 13.9194 0.485999C15.9594 0.485999 17.8134 0.833999 19.4814 1.53C21.1614 2.214 22.5954 3.156 23.7834 4.356C24.9714 5.556 25.8894 6.972 26.5374 8.604C27.1974 10.236 27.5274 11.994 27.5274 13.878ZM21.2994 13.878C21.2994 12.582 21.1314 11.418 20.7954 10.386C20.4594 9.342 19.9734 8.46 19.3374 7.74C18.7134 7.02 17.9454 6.468 17.0334 6.084C16.1214 5.7 15.0834 5.508 13.9194 5.508C12.7434 5.508 11.6934 5.7 10.7694 6.084C9.85736 6.468 9.08336 7.02 8.44736 7.74C7.82336 8.46 7.34336 9.342 7.00736 10.386C6.67136 11.418 6.50336 12.582 6.50336 13.878C6.50336 15.186 6.67136 16.362 7.00736 17.406C7.34336 18.438 7.82336 19.314 8.44736 20.034C9.08336 20.754 9.85736 21.306 10.7694 21.69C11.6934 22.062 12.7434 22.248 13.9194 22.248C15.0834 22.248 16.1214 22.062 17.0334 21.69C17.9454 21.306 18.7134 20.754 19.3374 20.034C19.9734 19.314 20.4594 18.438 20.7954 17.406C21.1314 16.362 21.2994 15.186 21.2994 13.878ZM47.5183 20.214C47.6623 20.214 47.8063 20.244 47.9503 20.304C48.0943 20.352 48.2323 20.442 48.3643 20.574L50.7763 23.112C49.7203 24.492 48.3943 25.536 46.7983 26.244C45.2143 26.94 43.3363 27.288 41.1643 27.288C39.1723 27.288 37.3843 26.952 35.8003 26.28C34.2283 25.596 32.8903 24.66 31.7863 23.472C30.6943 22.272 29.8543 20.856 29.2663 19.224C28.6783 17.58 28.3843 15.798 28.3843 13.878C28.3843 11.922 28.7203 10.128 29.3923 8.496C30.0643 6.852 31.0003 5.436 32.2003 4.248C33.4123 3.06 34.8583 2.136 36.5383 1.476C38.2183 0.815999 40.0723 0.485999 42.1003 0.485999C43.0843 0.485999 44.0083 0.575999 44.8723 0.755999C45.7483 0.923998 46.5643 1.164 47.3203 1.476C48.0763 1.776 48.7723 2.142 49.4083 2.574C50.0443 2.994 50.6083 3.462 51.1003 3.978L49.0483 6.732C48.9163 6.9 48.7603 7.056 48.5803 7.2C48.4003 7.332 48.1483 7.398 47.8243 7.398C47.6083 7.398 47.4043 7.35 47.2123 7.254C47.0203 7.158 46.8163 7.044 46.6003 6.912C46.3843 6.768 46.1443 6.618 45.8803 6.462C45.6283 6.294 45.3223 6.144 44.9623 6.012C44.6143 5.868 44.2003 5.748 43.7203 5.652C43.2523 5.556 42.7003 5.508 42.0643 5.508C40.9603 5.508 39.9523 5.706 39.0403 6.102C38.1283 6.486 37.3423 7.044 36.6823 7.776C36.0343 8.496 35.5243 9.372 35.1523 10.404C34.7923 11.436 34.6123 12.594 34.6123 13.878C34.6123 15.222 34.7923 16.416 35.1523 17.46C35.5243 18.504 36.0223 19.386 36.6463 20.106C37.2823 20.814 38.0203 21.354 38.8603 21.726C39.7003 22.098 40.6003 22.284 41.5603 22.284C42.1123 22.284 42.6163 22.26 43.0723 22.212C43.5283 22.152 43.9483 22.056 44.3323 21.924C44.7283 21.792 45.1003 21.624 45.4483 21.42C45.8083 21.204 46.1683 20.94 46.5283 20.628C46.6723 20.508 46.8283 20.412 46.9963 20.34C47.1643 20.256 47.3383 20.214 47.5183 20.214ZM70.6385 20.214C70.7825 20.214 70.9265 20.244 71.0705 20.304C71.2145 20.352 71.3525 20.442 71.4845 20.574L73.8965 23.112C72.8405 24.492 71.5145 25.536 69.9185 26.244C68.3345 26.94 66.4565 27.288 64.2845 27.288C62.2925 27.288 60.5045 26.952 58.9205 26.28C57.3485 25.596 56.0105 24.66 54.9065 23.472C53.8145 22.272 52.9745 20.856 52.3865 19.224C51.7985 17.58 51.5045 15.798 51.5045 13.878C51.5045 11.922 51.8405 10.128 52.5125 8.496C53.1845 6.852 54.1205 5.436 55.3205 4.248C56.5325 3.06 57.9785 2.136 59.6585 1.476C61.3385 0.815999 63.1925 0.485999 65.2205 0.485999C66.2045 0.485999 67.1285 0.575999 67.9925 0.755999C68.8685 0.923998 69.6845 1.164 70.4405 1.476C71.1965 1.776 71.8925 2.142 72.5285 2.574C73.1645 2.994 73.7285 3.462 74.2205 3.978L72.1685 6.732C72.0365 6.9 71.8805 7.056 71.7005 7.2C71.5205 7.332 71.2685 7.398 70.9445 7.398C70.7285 7.398 70.5245 7.35 70.3325 7.254C70.1405 7.158 69.9365 7.044 69.7205 6.912C69.5045 6.768 69.2645 6.618 69.0005 6.462C68.7485 6.294 68.4425 6.144 68.0825 6.012C67.7345 5.868 67.3205 5.748 66.8405 5.652C66.3725 5.556 65.8205 5.508 65.1845 5.508C64.0805 5.508 63.0725 5.706 62.1605 6.102C61.2485 6.486 60.4625 7.044 59.8025 7.776C59.1545 8.496 58.6445 9.372 58.2725 10.404C57.9125 11.436 57.7325 12.594 57.7325 13.878C57.7325 15.222 57.9125 16.416 58.2725 17.46C58.6445 18.504 59.1425 19.386 59.7665 20.106C60.4025 20.814 61.1405 21.354 61.9805 21.726C62.8205 22.098 63.7205 22.284 64.6805 22.284C65.2325 22.284 65.7365 22.26 66.1925 22.212C66.6485 22.152 67.0685 22.056 67.4525 21.924C67.8485 21.792 68.2205 21.624 68.5685 21.42C68.9285 21.204 69.2885 20.94 69.6485 20.628C69.7925 20.508 69.9485 20.412 70.1165 20.34C70.2845 20.256 70.4585 20.214 70.6385 20.214Z" fill="#39B54A"/>
</svg>
