<svg width="68" height="75" viewBox="0 0 68 75" fill="none" xmlns="http://www.w3.org/2000/svg">
<path d="M33.9483 0C15.2146 0 0 16.9792 0 37.8125C0 56.3542 11.9026 71.7708 27.7382 75C27.8417 75 27.9452 75 28.0487 75C28.7732 75 29.4977 74.375 29.4977 73.6458L31.4642 39.5833C31.4642 38.125 32.6027 36.9792 34.0518 36.9792C35.5008 36.9792 36.6393 38.125 36.6393 39.5833L38.5023 73.5417V73.75C38.6058 74.4792 39.2268 75 39.9513 75C40.0548 75 40.1583 75 40.2618 75C56.0974 71.7708 68 56.3542 68 37.8125C67.8965 16.9792 52.6819 0 33.9483 0ZM24.3227 45.7292C11.9026 53.9583 9.21157 37.2917 8.59056 31.5625L8.48706 31.1458C8.48706 30.8333 8.59056 30.625 8.79757 30.3125L8.90107 30.2083H9.00457C9.21157 30 9.52207 29.8958 9.83257 29.8958H10.2466C15.9391 30.5208 32.4992 33.3333 24.3227 45.7292ZM33.9483 30.7292C19.4581 27.7083 29.1872 13.9583 32.8097 9.47917C32.9132 9.375 33.0167 9.27083 33.1202 9.16667C33.3272 8.95833 33.6377 8.85417 33.9483 8.85417H34.1553C34.4658 8.85417 34.7763 8.95833 34.9833 9.16667C35.0868 9.27083 35.1903 9.375 35.2938 9.47917C38.7093 13.9583 48.4384 27.7083 33.9483 30.7292ZM43.5738 46.1458C35.3973 33.6458 51.9574 30.8333 57.6499 30.2083H58.1674C58.4779 30.2083 58.6849 30.3125 58.9954 30.5208C59.0989 30.5208 59.0989 30.625 59.0989 30.625C59.3059 30.8333 59.4094 31.1458 59.4094 31.4583C59.4094 31.5625 59.4094 31.7708 59.3059 31.875C58.6849 37.6042 55.9939 54.2708 43.5738 46.1458Z" fill="#39B54A"/>
</svg>
