<svg width="59" height="69" viewBox="0 0 59 69" fill="none" xmlns="http://www.w3.org/2000/svg">
<path d="M29.4551 0C13.2009 0 0 15.6208 0 34.7875C0 51.8458 10.3272 66.0292 24.067 69C24.1568 69 24.2466 69 24.3364 69C24.965 69 25.5936 68.425 25.5936 67.7542L27.2999 36.4167C27.2999 35.075 28.2877 34.0208 29.5449 34.0208C30.8021 34.0208 31.79 35.075 31.79 36.4167L33.4064 67.6583V67.85C33.4962 68.5208 34.035 69 34.6636 69C34.7534 69 34.8432 69 34.933 69C48.6728 66.0292 59 51.8458 59 34.7875C58.9102 15.6208 45.7093 0 29.4551 0ZM21.1035 42.0708C10.3272 49.6417 7.99239 34.3083 7.45358 29.0375L7.36378 28.6542C7.36378 28.3667 7.45358 28.175 7.63318 27.8875L7.72299 27.7917H7.81279C7.99239 27.6 8.2618 27.5042 8.5312 27.5042H8.89041C13.8295 28.0792 28.1979 30.6667 21.1035 42.0708ZM29.4551 28.2708C16.8828 25.4917 25.3242 12.8417 28.4673 8.72084C28.5571 8.625 28.6469 8.52917 28.7367 8.43333C28.9163 8.24167 29.1857 8.14583 29.4551 8.14583H29.6347C29.9041 8.14583 30.1735 8.24167 30.3531 8.43333C30.4429 8.52917 30.5327 8.625 30.6225 8.72084C33.586 12.8417 42.0274 25.4917 29.4551 28.2708ZM37.8067 42.4542C30.7123 30.9542 45.0807 28.3667 50.0198 27.7917H50.4688C50.7382 27.7917 50.9178 27.8875 51.1872 28.0792C51.277 28.0792 51.277 28.175 51.277 28.175C51.4566 28.3667 51.5464 28.6542 51.5464 28.9417C51.5464 29.0375 51.5464 29.2292 51.4566 29.325C50.9178 34.5958 48.583 49.9292 37.8067 42.4542Z" fill="#39B54A"/>
</svg>
