<svg width="75" height="75" viewBox="0 0 75 75" fill="none" xmlns="http://www.w3.org/2000/svg">
<path d="M37.5 0C16.7925 0 0 16.7925 0 37.5C0 58.2075 16.7925 75 37.5 75C58.2075 75 75 58.2075 75 37.5C75 16.7925 58.2075 0 37.5 0ZM59.2575 42.5022C59.3399 43.0424 59.3851 43.59 59.3851 44.145C59.3851 52.5599 49.5901 59.3777 37.5074 59.3777C25.4248 59.3777 15.6298 52.5599 15.6298 44.145C15.6298 43.5825 15.675 43.0275 15.7574 42.4873C13.8525 41.6325 12.525 39.7202 12.525 37.5C12.525 34.4851 14.97 32.0326 17.9924 32.0326C19.4624 32.0326 20.7899 32.6099 21.7724 33.5552C25.5672 30.8178 30.8178 29.0697 36.66 28.9198C36.66 28.8448 39.39 15.8398 39.39 15.8398C39.4426 15.5851 39.5926 15.3671 39.81 15.2252C40.0274 15.0827 40.2901 15.0375 40.5453 15.0902L49.6353 17.0248C50.2728 15.7351 51.5848 14.8424 53.1223 14.8424C55.2824 14.8424 57.0299 16.5899 57.0299 18.75C57.0299 20.9101 55.2824 22.6576 53.1223 22.6576C51.0298 22.6576 49.3349 21.0073 49.2376 18.9377L41.0997 17.205L38.6101 28.9278C44.3476 29.1298 49.5003 30.8699 53.2351 33.5701C54.2175 32.618 55.5525 32.0326 57.0299 32.0326C60.0529 32.0326 62.4973 34.4776 62.4973 37.5C62.4973 39.735 61.1549 41.6473 59.2575 42.5022Z" fill="white"/>
</svg>
