<svg width="97" height="97" viewBox="0 0 97 97" fill="none" xmlns="http://www.w3.org/2000/svg">
<g clip-path="url(#clip0)">
<path d="M43.29 68.0516L87.1863 24.1553C91.2596 20.2526 91.2596 13.2049 87.1863 9.30217C83.0941 5.20999 76.4254 5.20999 72.3332 9.30217L28.4369 53.1985L43.29 68.0516Z" fill="#39B54A"/>
<path d="M37.0191 32.1691L39.1789 34.3289L43.1953 30.3125L41.0355 28.1527L46.6623 22.526L24.1363 0L8.86641 15.2699L31.4113 37.8148L37.0191 32.1691Z" fill="#39B54A"/>
<path d="M73.5078 49.3905L67.8811 55.0173L66.0055 53.1417L61.9891 57.1581L63.8647 59.0337L58.2379 64.6604L81.7111 88.1337L96.9811 72.8637L73.5078 49.3905Z" fill="#39B54A"/>
<path d="M44.3131 97C20.4988 97.4926 -0.492579 76.5012 -5.60656e-07 52.6869H5.68359C5.68359 73.9814 23.0186 91.3164 44.3131 91.3164V97Z" fill="#39B54A"/>
<path d="M44.3131 81.6164C28.3611 81.6164 15.3836 68.6388 15.3836 52.6869H21.0672C21.0672 65.5129 31.5061 75.9328 44.3131 75.9328V81.6164Z" fill="#39B54A"/>
</g>
<defs>
<clipPath id="clip0">
<rect width="97" height="97" fill="white"/>
</clipPath>
</defs>
</svg>
