<svg width="168" height="87" viewBox="0 0 168 87" fill="none" xmlns="http://www.w3.org/2000/svg">
<g clip-path="url(#clip0)">
<path d="M125.081 0H42.9186C39.8342 0 37.3076 2.48385 37.3076 5.58865V81.444C37.3076 84.5161 39.8014 87.0327 42.9186 87.0327H125.048C128.133 87.0327 130.659 84.5488 130.659 81.444V5.58865C130.659 2.48385 128.165 0 125.081 0ZM119.47 75.8554H48.5295V11.1446H119.47V75.8554Z" fill="#85E7FF"/>
<path d="M24.2813 9.28174C21.197 9.28174 18.6704 11.7656 18.6704 14.8704V72.1296C18.6704 75.2017 21.1642 77.7183 24.2813 77.7183C27.3657 77.7183 29.8923 75.2344 29.8923 72.1296V14.8704C29.8595 11.7983 27.3657 9.28174 24.2813 9.28174Z" fill="#85E7FF"/>
<path d="M5.61094 18.5962C2.49375 18.5962 0 21.08 0 24.1848V62.8479C0 65.92 2.49375 68.4365 5.61094 68.4365C8.72813 68.4365 11.2219 65.9527 11.2219 62.8479V24.1848C11.1891 21.08 8.69531 18.5962 5.61094 18.5962Z" fill="#85E7FF"/>
<path d="M143.719 9.28174C140.634 9.28174 138.108 11.7656 138.108 14.8704V72.1296C138.108 75.2017 140.602 77.7183 143.719 77.7183C146.803 77.7183 149.33 75.2344 149.33 72.1296V14.8704C149.33 11.7983 146.836 9.28174 143.719 9.28174Z" fill="#85E7FF"/>
<path d="M162.389 18.5962C159.305 18.5962 156.778 21.08 156.778 24.1848V62.8479C156.778 65.92 159.272 68.4365 162.389 68.4365C165.506 68.4365 168 65.9527 168 62.8479V24.1848C168 21.08 165.506 18.5962 162.389 18.5962Z" fill="#85E7FF"/>
</g>
<defs>
<clipPath id="clip0">
<rect width="168" height="87" fill="white"/>
</clipPath>
</defs>
</svg>
