<svg width="73" height="80" viewBox="0 0 73 80" fill="none" xmlns="http://www.w3.org/2000/svg">
<g clip-path="url(#clip0)">
<path d="M9.69995 24.2V55L36.4 70.4L63 55V24.2L36.4 8.79999L9.69995 24.2Z" stroke="#39B54A" stroke-width="4" stroke-miterlimit="10"/>
<path d="M36.8 18.6C41.9362 18.6 46.1 14.4362 46.1 9.3C46.1 4.16375 41.9362 0 36.8 0C31.6638 0 27.5 4.16375 27.5 9.3C27.5 14.4362 31.6638 18.6 36.8 18.6Z" fill="#39B54A"/>
<path d="M63.4 33.1C68.5362 33.1 72.7 28.9362 72.7 23.8C72.7 18.6638 68.5362 14.5 63.4 14.5C58.2637 14.5 54.1 18.6638 54.1 23.8C54.1 28.9362 58.2637 33.1 63.4 33.1Z" fill="#39B54A"/>
<path d="M62.6 64.7C67.7363 64.7 71.9001 60.5362 71.9001 55.4C71.9001 50.2637 67.7363 46.1 62.6 46.1C57.4638 46.1 53.3 50.2637 53.3 55.4C53.3 60.5362 57.4638 64.7 62.6 64.7Z" fill="#39B54A"/>
<path d="M36.8 80C41.9362 80 46.1 75.8363 46.1 70.7C46.1 65.5638 41.9362 61.4 36.8 61.4C31.6638 61.4 27.5 65.5638 27.5 70.7C27.5 75.8363 31.6638 80 36.8 80Z" fill="#39B54A"/>
<path d="M9.3 64.7C14.4362 64.7 18.6 60.5362 18.6 55.4C18.6 50.2637 14.4362 46.1 9.3 46.1C4.16375 46.1 0 50.2637 0 55.4C0 60.5362 4.16375 64.7 9.3 64.7Z" fill="#39B54A"/>
<path d="M10.1 33.1C15.2363 33.1 19.4 28.9362 19.4 23.8C19.4 18.6638 15.2363 14.5 10.1 14.5C4.9638 14.5 0.800049 18.6638 0.800049 23.8C0.800049 28.9362 4.9638 33.1 10.1 33.1Z" fill="#39B54A"/>
</g>
<defs>
<clipPath id="clip0">
<rect width="72.7" height="80" fill="white"/>
</clipPath>
</defs>
</svg>
