<svg width="88" height="77" viewBox="0 0 88 77" fill="none" xmlns="http://www.w3.org/2000/svg">
<path d="M34.7226 56.0055C34.3906 56.0055 34.0585 55.882 33.7887 55.6556L24.3868 47.7107C24.0547 47.4431 23.8679 47.0314 23.8679 46.6198C23.8679 46.1876 24.0547 45.7965 24.3868 45.5289L33.7887 37.584C34.3906 37.0694 35.3245 37.1312 35.8434 37.7486C36.3623 38.3455 36.3 39.2718 35.6774 39.7863L27.583 46.6198L35.6774 53.4533C36.2792 53.9678 36.3623 54.8735 35.8434 55.491C35.5321 55.8409 35.1377 56.0055 34.7226 56.0055Z" fill="#39B54A"/>
<path d="M53.2774 56.0055C52.8623 56.0055 52.4679 55.8409 52.1774 55.491C51.6585 54.8941 51.7208 53.9678 52.3434 53.4533L60.4377 46.6198L52.3434 39.7863C51.7415 39.2718 51.6585 38.3661 52.1774 37.7486C52.6962 37.1517 53.6094 37.0694 54.2321 37.584L63.634 45.5289C63.966 45.7965 64.1528 46.2081 64.1528 46.6198C64.1528 47.052 63.966 47.4431 63.634 47.7107L54.2321 55.6556C53.9415 55.9026 53.6094 56.0055 53.2774 56.0055Z" fill="#39B54A"/>
<path d="M40.6792 61.9746C40.5755 61.9746 40.4717 61.954 40.3679 61.9334C39.5792 61.7688 39.0811 61.0072 39.2472 60.2251L45.1 32.6442C45.266 31.8621 46.034 31.3681 46.8226 31.5327C47.6113 31.6974 48.1094 32.459 47.9434 33.2411L42.0906 60.822C41.9453 61.5012 41.3434 61.9746 40.6792 61.9746Z" fill="#39B54A"/>
<path d="M78.2453 77H9.75472C4.37925 77 0 72.657 0 67.3261V9.67388C0 4.34296 4.37925 0 9.75472 0H78.2453C83.6208 0 88 4.34296 88 9.67388V67.3261C88 72.657 83.6208 77 78.2453 77ZM9.75472 2.88158C5.97736 2.88158 2.90566 5.92783 2.90566 9.67388V67.3261C2.90566 71.0722 5.97736 74.1184 9.75472 74.1184H78.2453C82.0226 74.1184 85.0943 71.0722 85.0943 67.3261V9.67388C85.0943 5.92783 82.0226 2.88158 78.2453 2.88158H9.75472Z" fill="#39B54A"/>
<path d="M86.5472 23.0732H1.45283C0.643396 23.0732 0 22.4352 0 21.6324C0 20.8297 0.643396 20.1917 1.45283 20.1917H86.5472C87.3566 20.1917 88 20.8297 88 21.6324C88 22.4352 87.3566 23.0732 86.5472 23.0732Z" fill="#39B54A"/>
<path d="M24.8226 16.178C22.2906 16.178 20.2151 14.1403 20.2151 11.6087C20.2151 9.09758 22.2698 7.03931 24.8226 7.03931C27.3547 7.03931 29.4302 9.077 29.4302 11.6087C29.4302 14.1403 27.3547 16.178 24.8226 16.178ZM24.8226 9.94147C23.8887 9.94147 23.1207 10.703 23.1207 11.6293C23.1207 12.5555 23.8887 13.317 24.8226 13.317C25.7566 13.317 26.5245 12.5555 26.5245 11.6293C26.5245 10.703 25.7566 9.94147 24.8226 9.94147Z" fill="#39B54A"/>
<path d="M10.6887 16.1369C8.1566 16.1369 6.08113 14.0992 6.08113 11.5675C6.08113 9.03586 8.13585 6.99817 10.6887 6.99817C13.2415 6.99817 15.2962 9.05644 15.2962 11.5675C15.2962 14.0786 13.2415 16.1369 10.6887 16.1369ZM10.6887 9.90033C9.75472 9.90033 8.98679 10.6619 8.98679 11.5881C8.98679 12.5143 9.75472 13.2759 10.6887 13.2759C11.6226 13.2759 12.3906 12.5143 12.3906 11.5881C12.3906 10.6413 11.6226 9.90033 10.6887 9.90033Z" fill="#39B54A"/>
<path d="M38.9566 16.2192C36.4245 16.2192 34.3698 14.1815 34.3698 11.6499C34.3698 9.13876 36.4245 7.10107 38.9566 7.10107C41.4887 7.10107 43.5641 9.13876 43.5641 11.6499C43.5434 14.1815 41.4887 16.2192 38.9566 16.2192ZM38.9566 9.98266C38.0226 9.98266 37.2755 10.7442 37.2755 11.6704C37.2755 12.5967 38.0434 13.3582 38.9566 13.3582C39.8906 13.3582 40.6585 12.5967 40.6585 11.6704C40.6585 10.7442 39.8906 9.98266 38.9566 9.98266Z" fill="#39B54A"/>
</svg>
