<svg width="87" height="87" viewBox="0 0 87 87" fill="none" xmlns="http://www.w3.org/2000/svg">
<g clip-path="url(#clip0)">
<path d="M86.9997 40.5996C86.9997 36.7753 85.3322 33.1503 82.4141 30.6671C83.5197 28.8546 84.0997 26.7703 84.0997 24.6496C84.0997 18.759 79.6954 13.8109 73.841 13.1221C73.9135 12.6146 73.9497 12.1071 73.9497 11.5996C73.9679 5.20151 68.8022 0.017762 62.4041 -0.00036303C58.6341 -0.00036303 55.1179 1.81214 52.9429 4.87526C49.2454 -0.344738 42.0316 -1.55911 36.8297 2.12026C35.7604 2.88151 34.836 3.80589 34.0747 4.87526C30.3591 -0.326613 23.1272 -1.54099 17.9072 2.17464C14.4091 4.65776 12.5785 8.88089 13.1585 13.1221C7.30411 13.829 2.89973 18.7771 2.89973 24.6496C2.89973 26.7703 3.47973 28.8546 4.58536 30.6671C-0.906515 35.3434 -1.55902 43.5721 3.11724 49.064C3.57036 49.5896 4.05973 50.079 4.58536 50.5321C3.47973 52.3446 2.89973 54.429 2.89973 56.5496C2.89973 62.9478 8.10161 68.1496 14.4997 68.1496H23.1997V84.0996H18.8497C18.0522 84.0996 17.3997 84.7521 17.3997 85.5496C17.3997 86.3471 18.0522 86.9996 18.8497 86.9996H68.1497C68.9472 86.9996 69.5997 86.3471 69.5997 85.5496C69.5997 84.7521 68.9472 84.0996 68.1497 84.0996H63.7997V68.1496H72.4997C78.8979 68.1496 84.0997 62.9478 84.0997 56.5496C84.0997 54.429 83.5197 52.3446 82.4141 50.5321C85.3322 48.049 86.9997 44.424 86.9997 40.5996ZM14.4997 65.2315C9.69661 65.2315 5.81786 61.3346 5.79974 56.5496C5.79974 54.574 6.47036 52.6709 7.70286 51.1303C8.21036 50.4959 8.10161 49.5896 7.46724 49.1003C7.43099 49.0821 7.41286 49.0459 7.37661 49.0278C2.71848 45.8921 1.48599 39.5846 4.62161 34.9446C5.34661 33.8571 6.28911 32.9146 7.37661 32.1896C8.04724 31.7365 8.21036 30.8484 7.77536 30.1778C7.75724 30.1415 7.73911 30.1053 7.70286 30.0871C6.47036 28.5465 5.79974 26.6434 5.79974 24.6678C5.79974 19.8646 9.69661 15.9678 14.4997 15.9678L14.8804 15.9859C15.3516 16.004 15.8047 15.8046 16.0766 15.424C16.3666 15.0615 16.4572 14.5721 16.3122 14.119C14.9529 9.51526 17.581 4.67589 22.2029 3.31651C26.2991 2.10214 30.6672 4.05964 32.516 7.90214C32.516 7.92026 32.516 7.93839 32.4979 7.93839C32.3166 8.48214 32.1716 9.04401 32.081 9.60589C32.0629 9.69651 32.0447 9.80526 32.0447 9.89589C31.8635 10.9653 31.8635 12.0528 32.0085 13.1221C26.1541 13.8109 21.7497 18.759 21.7497 24.6496C21.7497 26.7703 22.3297 28.8546 23.4354 30.6671C23.4172 30.6853 23.381 30.7215 23.3629 30.7396L16.6204 23.9971C16.0404 23.4353 15.1341 23.4534 14.5722 24.0334C14.0285 24.5953 14.0285 25.4834 14.5722 26.0453L21.4054 32.8784C17.3454 38.3884 18.2335 46.1096 23.4535 50.5503C22.8916 51.4565 22.4747 52.4534 22.1847 53.4865L17.001 48.3028C16.421 47.7409 15.5147 47.759 14.9529 48.339C14.4091 48.9009 14.4091 49.789 14.9529 50.3509L21.8041 57.2021C21.8222 57.4015 21.8222 57.6009 21.8404 57.8003C21.8585 57.9453 21.8766 58.0721 21.8947 58.199C21.931 58.4709 21.9672 58.7428 22.0216 58.9965C22.0579 59.1596 22.0941 59.3046 22.1485 59.4496C22.2029 59.6853 22.2754 59.9209 22.3479 60.1384C22.4022 60.3015 22.4566 60.4465 22.5291 60.6096C22.6016 60.8271 22.6922 61.0265 22.7829 61.244C22.8554 61.4071 22.9279 61.5521 23.0004 61.6971C23.091 61.8965 23.1997 62.0959 23.3085 62.2771C23.3991 62.4221 23.4897 62.5671 23.5804 62.7121C23.6891 62.8934 23.816 63.0746 23.9429 63.2559C24.0516 63.4009 24.1422 63.5278 24.251 63.6728C24.3779 63.8359 24.5229 63.999 24.6679 64.1621C24.7766 64.289 24.9035 64.4159 25.0122 64.5428C25.1572 64.7059 25.3204 64.8509 25.4835 64.9959C25.556 65.0684 25.6285 65.159 25.7191 65.2315H14.4997ZM42.0497 84.0996H26.0997V68.1496H42.0497V84.0996ZM43.4997 18.8496C42.7022 18.8496 42.0497 19.5021 42.0497 20.2996V30.5765L35.4704 23.9971C34.8904 23.4353 33.9841 23.4534 33.4222 24.0334C32.8785 24.5953 32.8785 25.4834 33.4222 26.0453L42.0679 34.6909V54.5196L35.851 48.3028C35.271 47.7409 34.3647 47.759 33.8029 48.339C33.2591 48.9009 33.2591 49.789 33.8029 50.3509L42.086 58.634V65.2496H33.386C28.5829 65.2496 24.686 61.3528 24.686 56.5496C24.686 54.574 25.3566 52.6709 26.5891 51.1303C27.0966 50.4959 26.9879 49.5896 26.3535 49.1003C26.3172 49.0821 26.2991 49.0459 26.2629 49.0278C21.6047 45.8921 20.3722 39.5846 23.5079 34.9446C24.2329 33.8571 25.1754 32.9146 26.2629 32.1896C26.9335 31.7365 27.0966 30.8484 26.6616 30.1778C26.6435 30.1415 26.6254 30.1053 26.5891 30.0871C25.3566 28.5465 24.686 26.6434 24.686 24.6678C24.686 19.8646 28.5829 15.9678 33.386 15.9678L33.7666 15.9859C34.2379 16.004 34.691 15.8046 34.9629 15.424C35.2529 15.0615 35.3435 14.5721 35.1985 14.119C34.9629 13.3034 34.836 12.4696 34.836 11.6178C34.836 11.074 34.8904 10.5484 34.981 10.0228C34.981 10.0046 34.981 9.98651 34.981 9.96839C35.0897 9.44276 35.2347 8.93526 35.4341 8.42776C36.721 5.09276 39.9291 2.89964 43.4997 2.89964C47.0704 2.89964 50.2785 5.09276 51.5835 8.40964C51.7829 8.91714 51.9279 9.42464 52.0366 9.95026C52.0366 9.96839 52.0366 9.98651 52.0366 10.0046C52.1454 10.5303 52.1816 11.0559 52.1816 11.5815C52.1816 12.4334 52.0547 13.2671 51.8191 14.0828C51.6741 14.5359 51.7647 15.0253 52.0547 15.3878C52.3447 15.7684 52.7797 15.9678 53.251 15.9496H53.6497C58.4529 15.9496 62.3497 19.8465 62.3497 24.6496C62.3497 26.6253 61.6791 28.5284 60.4466 30.069C59.9391 30.7034 60.0479 31.6096 60.6822 32.099C60.7185 32.1171 60.7366 32.1534 60.7729 32.1715C65.431 35.3071 66.6635 41.6146 63.5279 46.2546C62.8029 47.3421 61.8604 48.2846 60.7729 49.0096C60.1022 49.4628 59.9391 50.3509 60.3741 51.0215C60.3922 51.0578 60.4104 51.094 60.4466 51.1121C61.6791 52.6528 62.3497 54.5559 62.3497 56.5315C62.3497 61.3346 58.4529 65.2315 53.6497 65.2315H44.9497V45.4571C45.0585 45.4028 45.1672 45.3303 45.2579 45.2578L54.6829 35.8328C55.2447 35.2528 55.2266 34.3465 54.6466 33.7846C54.0847 33.2409 53.1966 33.2409 52.6347 33.7846L44.9497 41.4515V20.2996C44.9497 19.5021 44.2972 18.8496 43.4997 18.8496ZM60.8997 84.0996H44.9497V68.1496H60.8997V84.0996ZM79.2241 51.0396C79.2422 51.0759 79.2604 51.1121 79.2966 51.1303C80.5291 52.6709 81.1997 54.574 81.1997 56.5496C81.1997 61.3528 77.3029 65.2496 72.4997 65.2496H61.3166C61.4072 65.1771 61.4797 65.0865 61.5522 65.014C61.7154 64.869 61.8604 64.724 62.0235 64.5609C62.1504 64.434 62.2591 64.3071 62.3679 64.1803C62.5129 64.0171 62.6397 63.854 62.7847 63.6909C62.8935 63.5459 63.0022 63.419 63.0929 63.274C63.2197 63.0928 63.3466 62.9115 63.4554 62.7303C63.546 62.5853 63.6366 62.4403 63.7272 62.2953C63.836 62.0959 63.9447 61.9146 64.0354 61.7153C64.1079 61.5703 64.1804 61.4071 64.2529 61.2621C64.3435 61.0628 64.4341 60.8453 64.5066 60.6278C64.561 60.4646 64.6335 60.3196 64.6879 60.1565C64.7604 59.939 64.8147 59.7034 64.8872 59.4678C64.9235 59.3228 64.9779 59.1596 65.0141 59.0146C65.0685 58.7609 65.1047 58.489 65.141 58.2171C65.1591 58.0903 65.1954 57.9453 65.1954 57.8184C65.2316 57.4015 65.2679 56.9846 65.2679 56.5678C65.2679 54.4471 64.6879 52.3628 63.5822 50.5503C66.3191 48.2121 67.9685 44.8409 68.1316 41.2521L73.5329 35.8509C74.0947 35.2709 74.0766 34.3646 73.4966 33.8028C72.9347 33.259 72.0466 33.259 71.4847 33.8028L67.7691 37.5184C67.1166 34.854 65.6485 32.4796 63.5641 30.7034C64.6697 28.8909 65.2679 26.8065 65.2497 24.6859C65.2497 18.7953 60.8454 13.8471 54.991 13.1584C55.136 12.089 55.1179 11.0015 54.9547 9.93214C54.9366 9.84151 54.9185 9.73276 54.9185 9.64214C54.8279 9.08026 54.6829 8.51839 54.5016 7.97464C54.5016 7.95651 54.5016 7.93839 54.4835 7.93839C56.5497 3.60651 61.7516 1.77589 66.0835 3.84214C69.9441 5.69089 71.8835 10.059 70.6691 14.1553C70.5241 14.6084 70.6147 15.0978 70.9047 15.4603C71.1947 15.8409 71.6297 16.0403 72.101 16.0221L72.4997 15.9496C77.3029 15.9496 81.1997 19.8465 81.1997 24.6496C81.1997 26.6253 80.5291 28.5284 79.2966 30.069C78.7891 30.7034 78.8979 31.6096 79.5322 32.099C79.5685 32.1171 79.5866 32.1534 79.6229 32.1715C84.281 35.3071 85.5135 41.6146 82.3779 46.2546C81.6529 47.3421 80.7104 48.2846 79.6229 49.0096C78.9522 49.4628 78.771 50.369 79.2241 51.0396Z" fill="#39B54A"/>
</g>
<defs>
<clipPath id="clip0">
<rect width="87" height="87" fill="white"/>
</clipPath>
</defs>
</svg>
