<svg width="54" height="54" viewBox="0 0 54 54" fill="none" xmlns="http://www.w3.org/2000/svg">
<path d="M44.61 0H9.39C4.20405 0 0 4.20405 0 9.39V44.61C0 49.796 4.20405 54 9.39 54H44.61C49.796 54 54 49.796 54 44.61V9.39C54 4.20405 49.796 0 44.61 0Z" fill="#39B54A"/>
<path d="M36.21 19.61C35.882 17.3805 34.7631 15.3432 33.0575 13.8703C31.352 12.3973 29.1736 11.5868 26.92 11.5868C24.6664 11.5868 22.488 12.3973 20.7825 13.8703C19.0769 15.3432 17.958 17.3805 17.63 19.61C16.4614 20.1141 15.4075 20.8504 14.5322 21.7742C13.657 22.6981 12.9787 23.7902 12.5385 24.9843C12.0983 26.1784 11.9054 27.4495 11.9716 28.7204C12.0377 29.9913 12.3615 31.2355 12.9233 32.3774C13.4851 33.5193 14.2732 34.5351 15.2396 35.3631C16.2061 36.1911 17.3308 36.814 18.5454 37.194C19.7599 37.5739 21.0391 37.703 22.3051 37.5734C23.5711 37.4438 24.7976 37.0582 25.91 36.44V46H27.91V36.44C29.339 37.2248 30.9478 37.624 32.578 37.5983C34.2082 37.5726 35.8035 37.1229 37.2072 36.2935C38.6108 35.464 39.7742 34.2834 40.583 32.8678C41.3919 31.4522 41.8182 29.8504 41.82 28.22C41.819 26.3958 41.2883 24.6111 40.2925 23.0827C39.2966 21.5543 37.8784 20.3479 36.21 19.61ZM32.45 35.61C30.8061 35.5918 29.2153 35.0252 27.93 34V27.86L32.45 25.48L31.51 23.7L27.93 25.58V21.58H25.93V30.02L22.35 28.14L21.39 30L25.91 32.38V34C25.0688 34.6595 24.0942 35.128 23.0538 35.3733C22.0134 35.6185 20.9322 35.6344 19.885 35.42C18.8379 35.2057 17.8498 34.7661 16.9895 34.1318C16.1292 33.4975 15.4171 32.6836 14.9027 31.7467C14.3883 30.8097 14.0839 29.7721 14.0105 28.7057C13.9371 27.6394 14.0966 26.5698 14.4778 25.5712C14.859 24.5726 15.4529 23.6689 16.2182 22.9228C16.9836 22.1766 17.9021 21.6058 18.91 21.25L19.52 21.03L19.57 20.37C19.7222 18.5267 20.562 16.8079 21.9227 15.555C23.2833 14.3021 25.0653 13.6066 26.915 13.6066C28.7646 13.6066 30.5467 14.3021 31.9073 15.555C33.268 16.8079 34.1078 18.5267 34.26 20.37L34.31 21.03L34.93 21.25C36.5697 21.829 37.9515 22.97 38.8304 24.4705C39.7092 25.9711 40.0283 27.7343 39.7312 29.4478C39.434 31.1612 38.5398 32.714 37.207 33.831C35.8742 34.948 34.189 35.557 32.45 35.55V35.61Z" fill="white"/>
</svg>
