<svg width="68" height="68" viewBox="0 0 68 68" fill="none" xmlns="http://www.w3.org/2000/svg">
<path d="M34 0C15.2252 0 0 15.2252 0 34C0 52.7748 15.2252 68 34 68C52.7748 68 68 52.7748 68 34C68 15.2252 52.7748 0 34 0ZM49.524 26.5096C49.5391 26.8442 49.5463 27.1804 49.5463 27.5181C49.5463 37.8303 41.6969 49.7217 27.3423 49.7222H27.3428H27.3423C22.9351 49.7222 18.834 48.4304 15.3803 46.2167C15.9909 46.2888 16.6125 46.3246 17.2418 46.3246C20.8983 46.3246 24.2632 45.0774 26.9345 42.984C23.5182 42.9207 20.6378 40.6645 19.6438 37.5636C20.1195 37.6549 20.6088 37.7047 21.1104 37.7047C21.8228 37.7047 22.5128 37.6088 23.1685 37.4298C19.5976 36.7149 16.9077 33.559 16.9077 29.7801C16.9077 29.7448 16.9077 29.7132 16.9087 29.6805C17.9603 30.2652 19.1629 30.6169 20.4433 30.6563C18.3478 29.2582 16.9704 26.8681 16.9704 24.1605C16.9704 22.7307 17.3569 21.3911 18.0272 20.2378C21.8757 24.9599 27.6271 28.0655 34.1131 28.3918C33.9792 27.8201 33.9102 27.2245 33.9102 26.6123C33.9102 22.3042 37.4054 18.8091 41.7151 18.8091C43.9599 18.8091 45.9874 19.7579 47.4115 21.2749C49.1894 20.9242 50.8589 20.2747 52.367 19.3808C51.7834 21.2023 50.5466 22.7307 48.9352 23.6972C50.5139 23.5083 52.0184 23.0897 53.4166 22.4681C52.3722 24.0334 51.0477 25.4082 49.524 26.5096Z" fill="white"/>
</svg>
