<svg width="103" height="54" viewBox="0 0 103 54" fill="none" xmlns="http://www.w3.org/2000/svg">
<path d="M61.2661 33.1618C60.5987 31.8622 59.9758 30.5627 59.6199 29.8456C62.0669 28.5909 63.8022 26.0813 64.3361 22.9444C64.959 19.3145 63.8466 15.6398 61.533 13.5784C58.7745 10.6656 52.2786 10.8448 47.073 10.9344C45.4268 10.9793 43.8695 11.0241 42.7127 10.9344C42.5348 10.9344 42.3568 10.9792 42.2233 11.1137C42.0898 11.2481 42.0009 11.4274 42.0009 11.6066V42.3934C42.0009 42.7519 42.3123 43.0656 42.6682 43.0207H48.5412C48.8972 43.0207 49.2086 42.7071 49.2086 42.3485V31.7726H52.8125L57.9736 42.6622C58.0626 42.8863 58.3296 43.0656 58.5965 43.0207H64.9145C65.1369 43.0207 65.3149 42.9311 65.4484 42.7519C65.8043 42.3037 65.8488 42.2589 61.2661 33.1618ZM56.5054 24.0647C55.1261 25.4988 52.0561 25.4091 49.6536 25.3643H49.2531V17.3875H49.6091C52.1006 17.2979 55.1706 17.2083 56.5499 18.6871C57.1283 19.3145 57.3952 20.166 57.3063 21.3759C57.3063 21.4207 57.3063 21.4207 57.3063 21.4656C57.3507 22.5859 57.0838 23.4373 56.5054 24.0647Z" fill="#39B54A"/>
<path d="M90.6756 20.1212C90.1862 16.5361 88.184 13.6232 85.381 12.2788C82.8004 10.7104 77.2834 10.8448 72.8341 10.9344C71.0099 10.9793 69.4527 11.0241 68.3404 10.9344C68.1624 10.9344 67.9844 10.9793 67.851 11.1137C67.7175 11.2481 67.6285 11.4274 67.6285 11.6066V42.3486C67.6285 42.7071 67.94 43.0208 68.2959 42.9759H74.1689C74.5248 42.9759 74.8363 42.6622 74.8363 42.3037V32.2207H74.8808C79.1521 32.3104 84.9361 32.4 87.7391 29.3975C90.0527 27.3361 91.2095 23.7959 90.6756 20.1212ZM83.5123 21.8689C83.5568 22.9892 83.3343 23.8855 82.7559 24.468C81.4212 25.9021 78.3512 25.8124 75.9041 25.7228C75.5037 25.7228 75.1477 25.7228 74.8363 25.7228V17.3876H75.2367C77.8618 17.2979 81.0652 17.2083 82.6225 18.7319C83.2898 19.449 83.6013 20.4349 83.5568 21.7793C83.5123 21.8241 83.5123 21.8689 83.5123 21.8689Z" fill="#39B54A"/>
<path d="M25.1827 10.8896C17.1296 10.8896 10.5892 18.1942 10.5892 27.1568C10.5892 35.1336 15.7058 41.766 22.5132 43.1552C22.5577 43.1552 22.6022 43.1552 22.6467 43.1552C22.9581 43.1552 23.2695 42.8863 23.2695 42.5726L24.1149 27.9187C24.1149 27.2913 24.6043 26.7983 25.2272 26.7983C25.8501 26.7983 26.3395 27.2913 26.3395 27.9187L27.1404 42.5278V42.6174C27.1849 42.9311 27.4518 43.1552 27.7633 43.1552C27.8078 43.1552 27.8523 43.1552 27.8968 43.1552C34.7041 41.766 39.8207 35.1336 39.8207 27.1568C39.7762 18.1942 33.2359 10.8896 25.1827 10.8896ZM21.0449 30.5626C15.7058 34.1029 14.549 26.9328 14.2821 24.468L14.2376 24.2888C14.2376 24.1543 14.2821 24.0647 14.3711 23.9303L14.4156 23.8855H14.46C14.549 23.7958 14.6825 23.751 14.816 23.751H14.994C17.441 24.0199 24.5598 25.2299 21.0449 30.5626ZM25.1827 24.1095C18.9538 22.8099 23.1361 16.8946 24.6933 14.9676C24.7378 14.9228 24.7823 14.878 24.8268 14.8332C24.9158 14.7436 25.0492 14.6987 25.1827 14.6987H25.2717C25.4052 14.6987 25.5387 14.7436 25.6276 14.8332C25.6721 14.878 25.7166 14.9228 25.7611 14.9676C27.2294 16.8946 31.4117 22.8099 25.1827 24.1095ZM29.3205 30.7419C25.8056 25.3643 32.9244 24.1543 35.3715 23.8855H35.594C35.7274 23.8855 35.8164 23.9303 35.9499 24.0199C35.9944 24.0199 35.9944 24.0647 35.9944 24.0647C36.0834 24.1543 36.1279 24.2888 36.1279 24.4232C36.1279 24.468 36.1279 24.5577 36.0834 24.6025C35.8164 27.0672 34.6596 34.2373 29.3205 30.7419Z" fill="#39B54A"/>
</svg>
